<?xml version="1.0" encoding="UTF-8" standalone="no"?>
<svg
   xmlns:dc="http://purl.org/dc/elements/1.1/"
   xmlns:cc="http://creativecommons.org/ns#"
   xmlns:rdf="http://www.w3.org/1999/02/22-rdf-syntax-ns#"
   xmlns:svg="http://www.w3.org/2000/svg"
   xmlns="http://www.w3.org/2000/svg"
   xmlns:sodipodi="http://sodipodi.sourceforge.net/DTD/sodipodi-0.dtd"
   xmlns:inkscape="http://www.inkscape.org/namespaces/inkscape"
   width="300mm"
   height="300mm"
   viewBox="0 0 300 300"
   version="1.1"
   id="svg16"
   inkscape:version="1.0.1 (3bc2e813f5, 2020-09-07)"
   sodipodi:docname="compass_logo.svg"
   inkscape:export-filename="C:\Users\brimell\General\Github\dimension\src\assets\img\compass_logo_128.png"
   inkscape:export-xdpi="10.837334"
   inkscape:export-ydpi="10.837334">
  <defs
     id="defs10" />
  <sodipodi:namedview
     id="base"
     pagecolor="#ffffff"
     bordercolor="#666666"
     borderopacity="1.0"
     inkscape:pageopacity="0.0"
     inkscape:pageshadow="2"
     inkscape:zoom="0.98994949"
     inkscape:cx="773.62942"
     inkscape:cy="607.12456"
     inkscape:document-units="mm"
     inkscape:current-layer="layer1"
     inkscape:document-rotation="0"
     showgrid="false"
     inkscape:window-width="2736"
     inkscape:window-height="1790"
     inkscape:window-x="-11"
     inkscape:window-y="-11"
     inkscape:window-maximized="1" />
  <metadata
     id="metadata13">
    <rdf:RDF>
      <cc:Work
         rdf:about="">
        <dc:format>image/svg+xml</dc:format>
        <dc:type
           rdf:resource="http://purl.org/dc/dcmitype/StillImage" />
        <dc:title />
      </cc:Work>
    </rdf:RDF>
  </metadata>
  <g
     inkscape:label="Layer 1"
     inkscape:groupmode="layer"
     id="layer1"
     transform="translate(96.751572,11.492589)">
    <rect
       style="fill:#000000;stroke-width:0.194"
       id="rect39"
       width="300"
       height="300"
       x="-96.751572"
       y="-11.492589"
       ry="44.366737" />
    <path
       style="fill:#ffffff;fill-opacity:1;stroke-width:0.304075"
       d="M 45.352882,239.40205 C 35.460444,238.43249 28.890727,237.16434 21.787058,234.85314 -3.863882,226.50753 -24.948719,208.41666 -36.999503,184.41402 -47.84028,162.82147 -50.514665,137.80723 -44.509326,114.17263 -37.504475,86.604381 -18.998778,63.226482 6.1271795,50.204511 16.459847,44.849424 26.461487,41.610995 38.207117,39.817363 c 6.130402,-0.93615 18.387273,-1.168014 24.472326,-0.462944 17.337011,2.008827 31.525735,7.145751 45.464977,16.460287 17.92465,11.977667 32.08679,30.454783 38.9074,50.761854 10.26044,30.54858 5.56109,64.31221 -12.5478,90.15251 -4.54446,6.4847 -11.9229,14.55126 -17.84548,19.50978 -18.261752,15.28921 -41.202099,23.53172 -64.892891,23.31617 -2.941672,-0.0267 -5.827413,-0.0956 -6.412767,-0.15297 z m 11.941446,-3.75859 c 8.456101,-0.46889 15.420315,-1.64396 22.711277,-3.83203 9.970569,-2.99225 17.780811,-6.68821 26.649555,-12.61113 9.66119,-6.45215 19.57522,-16.40193 26.17777,-26.27217 14.90933,-22.28815 19.88282,-49.44433 13.9225,-76.01946 C 139.91501,86.409404 118.04701,60.680455 88.872974,48.806653 59.530068,36.864114 25.666837,40.160649 -0.63492838,57.520109 -15.111936,67.075095 -26.489111,79.854266 -34.176149,95.194583 c -4.702569,9.384477 -7.608187,18.581947 -9.309581,29.468647 -0.60619,3.87882 -0.68917,5.54278 -0.689937,13.83543 -5.92e-4,7.39867 0.115165,10.24394 0.538561,13.22727 2.840413,20.01412 11.00871,37.5785 24.352197,52.3648 16.8219301,18.64089 40.944774,30.1769 65.948974,31.5381 2.372815,0.12918 4.519457,0.25272 4.770336,0.27457 0.250858,0.0218 2.887828,-0.0951 5.859927,-0.25994 z M 51.191131,218.2576 c -0.253593,-0.25358 -0.364895,-1.85824 -0.364895,-5.2605 0,-5.24676 0.102341,-5.6254 1.520379,-5.6254 1.418052,0 1.520373,0.37864 1.520373,5.6254 0,5.24676 -0.102321,5.62539 -1.520373,5.62539 -0.434829,0 -0.954796,-0.1642 -1.155484,-0.36489 z M 17.39666,210.43115 c -0.344764,-0.34476 -0.626849,-0.77833 -0.626849,-0.96346 0,-0.18515 0.912415,-2.24082 2.027584,-4.56816 2.132673,-4.45085 2.633643,-4.97759 4.025609,-4.23264 1.037154,0.55507 0.767378,1.71328 -1.420039,6.09667 -2.208855,4.42632 -2.75114,4.92276 -4.006305,3.66759 z m 65.958388,-3.70364 c -1.166694,-2.3612 -2.121277,-4.52934 -2.121277,-4.81807 0,-0.85345 1.081529,-1.63122 1.961237,-1.41043 0.63217,0.15866 1.122587,0.93278 2.748929,4.33914 1.088724,2.28031 1.979481,4.37776 1.979481,4.66101 0,0.69834 -0.962765,1.52145 -1.779613,1.52145 -0.555561,0 -1.023131,-0.71979 -2.788757,-4.2931 z M -17.79887,196.11597 c -0.754765,-0.30089 -1.312201,-1.18665 -1.312201,-2.08509 0,-0.33531 0.513125,-1.20781 1.140284,-1.93891 0.627152,-0.73109 1.756033,-2.06211 2.508618,-2.95783 0.752587,-0.89572 3.404243,-4.03459 5.8925693,-6.97528 2.4883244,-2.9407 5.7946273,-6.85189 7.3473458,-8.69155 1.55270906,-1.83965 10.8055993,-12.79168 20.5619819,-24.33782 9.756383,-11.54615 18.62828,-22.0531 19.715351,-23.34878 l 1.976487,-2.35577 15.659885,-8.09348 C 90.922509,97.123013 114.42002,84.971369 117.67195,83.278474 c 3.6527,-1.901537 4.37689,-2.076803 5.45656,-1.320579 1.14856,0.80449 0.89611,2.149968 -0.77125,4.110496 -0.79292,0.932322 -8.00969,9.47133 -16.03727,18.975569 -17.432167,20.63876 -20.703867,24.50934 -26.607739,31.47821 -2.479464,2.92672 -6.58781,7.78432 -9.129653,10.79467 -2.541851,3.01035 -4.925682,5.82327 -5.297378,6.25095 -0.392814,0.45195 -9.196534,5.18327 -21.022736,11.2981 -11.190798,5.78629 -23.630911,12.22193 -27.644711,14.30142 -4.013793,2.0795 -10.3081559,5.33109 -13.9874629,7.22575 -3.6793098,1.89466 -9.4025777,4.85261 -12.7183791,6.57323 -3.315793,1.72063 -6.257726,3.19277 -6.537617,3.27144 -0.27989,0.0787 -0.807825,0.0239 -1.173184,-0.12176 z m 14.9558255,-10.47993 c 3.8465529,-1.97165 8.2252373,-4.23199 9.7304073,-5.02298 1.5051766,-0.79097 4.9944412,-2.60323 7.7539232,-4.02721 5.394258,-2.78361 19.859554,-10.2659 26.302508,-13.60518 2.174141,-1.12681 6.689657,-3.45332 10.03448,-5.17 5.234144,-2.68636 9.833798,-5.10762 10.118157,-5.32622 0.121918,-0.0937 -19.701684,-24.91644 -19.980295,-25.01896 -0.129247,-0.0476 -3.025977,3.22475 -6.437192,7.27176 -3.411227,4.04703 -7.160072,8.47435 -8.330753,9.8385 -1.170695,1.36415 -3.385338,3.97571 -4.921448,5.80347 -1.536103,1.82776 -9.704151,11.4995 -18.1512154,21.49277 -8.4470676,9.99326 -15.4442636,18.30866 -15.5493356,18.47867 -0.10507,0.17 0.40028,-0.0147 1.122995,-0.41034 0.722725,-0.3957 4.461215,-2.33262 8.3077685,-4.30428 z m 112.2037745,0.74103 c -3.64303,-2.95221 -4.25895,-3.84168 -3.35315,-4.84256 0.30728,-0.33955 0.81265,-0.61735 1.12305,-0.61735 0.75729,0 7.73369,5.58284 7.9341,6.34925 0.087,0.33283 -0.0397,0.88765 -0.28149,1.23296 -0.82181,1.17329 -1.85452,0.7691 -5.42251,-2.1223 z M -25.018821,157.3296 c -0.575702,-0.57571 -0.613067,-1.355 -0.09774,-2.03884 0.464883,-0.6169 8.711839,-2.49839 9.778023,-2.23078 0.987574,0.24785 1.324518,1.61358 0.578719,2.3457 -0.329617,0.32359 -2.174851,0.9135 -4.601203,1.471 -4.663903,1.07161 -5.011308,1.09941 -5.657803,0.45292 z m 152.446701,0.35571 c -0.0696,-0.0671 -1.76872,-0.48932 -3.7756,-0.93811 -2.0069,-0.44878 -3.81995,-0.95791 -4.02901,-1.1314 -0.4836,-0.40133 -0.49301,-1.83086 -0.0152,-2.30868 0.20069,-0.20069 0.66494,-0.36489 1.03167,-0.36489 1.09691,0 8.70433,1.80511 9.14351,2.1696 0.62025,0.51475 0.50603,2.01286 -0.18152,2.38084 -0.58043,0.31062 -1.92761,0.43001 -2.17386,0.19264 z M -20.245029,123.91119 c -2.365584,-0.53137 -4.51494,-1.14363 -4.776344,-1.36058 -0.656707,-0.54501 -0.594828,-1.63791 0.129861,-2.29374 0.584848,-0.52929 0.759511,-0.51301 5.20692,0.485 3.813797,0.85582 4.68082,1.15193 5.063388,1.72927 0.552067,0.83315 0.156838,2.01927 -0.752049,2.25695 -0.313895,0.0821 -2.506192,-0.28552 -4.871776,-0.8169 z m 140.152259,0.57453 c -0.82341,-0.57675 -0.90391,-2.10882 -0.13193,-2.51071 0.51472,-0.26796 8.54409,-2.17698 9.15639,-2.17698 0.54407,0 1.2582,0.94043 1.2582,1.6569 0,1.23082 -0.27652,1.33387 -8.99034,3.35051 -0.34554,0.08 -0.92709,-0.0639 -1.29232,-0.31972 z M -6.7199995,93.780805 c -3.0059324,-2.430007 -3.5728855,-3.021989 -3.5728855,-3.730548 0,-1.010855 0.4950076,-1.571984 1.3867679,-1.571984 0.3736363,0 2.2489878,1.268781 4.3482748,2.941866 2.9250117,2.331167 3.69129022,3.097458 3.69129022,3.6914 0,0.845934 -0.76392532,1.557381 -1.67241512,1.557514 -0.3344862,5.4e-5 -2.2159497,-1.299661 -4.1810323,-2.888248 z M 18.838217,72.821956 c -1.875646,-3.809212 -2.124764,-4.503195 -1.840506,-5.127079 0.418793,-0.919145 1.372556,-1.172142 2.209315,-0.586049 0.741006,0.519016 4.252443,7.72908 4.252443,8.731566 0,0.89691 -0.562203,1.387092 -1.590881,1.387092 -0.805986,0 -0.999973,-0.282005 -3.030371,-4.40553 z m 62.889896,3.944206 c -0.271889,-0.271886 -0.494235,-0.724025 -0.494115,-1.004752 2.2e-4,-0.957733 3.876534,-8.506219 4.554094,-8.868838 0.861557,-0.461089 2.139794,0.318201 2.125271,1.295685 -0.0053,0.372436 -0.929172,2.524415 -2.05251,4.782174 -1.779222,3.575986 -2.145278,4.116944 -2.840421,4.197546 -0.441437,0.05118 -1.018863,-0.128348 -1.292319,-0.401815 z m -29.99249,-6.628543 c -0.754569,-0.375834 -0.757663,-0.395246 -0.840753,-5.280708 -0.09043,-5.316195 0.06041,-5.873941 1.588267,-5.873941 1.284064,0 1.404542,0.529462 1.315544,5.781195 -0.07732,4.560057 -0.130734,4.971308 -0.69471,5.345401 -0.492848,0.326889 -0.757482,0.332315 -1.368348,0.02806 z"
       id="path849" />
  </g>
</svg>
