<?xml version="1.0" encoding="UTF-8" standalone="no"?>
<svg
   xmlns:dc="http://purl.org/dc/elements/1.1/"
   xmlns:cc="http://creativecommons.org/ns#"
   xmlns:rdf="http://www.w3.org/1999/02/22-rdf-syntax-ns#"
   xmlns:svg="http://www.w3.org/2000/svg"
   xmlns="http://www.w3.org/2000/svg"
   xmlns:sodipodi="http://sodipodi.sourceforge.net/DTD/sodipodi-0.dtd"
   xmlns:inkscape="http://www.inkscape.org/namespaces/inkscape"
   width="232.08098mm"
   height="232.74786mm"
   viewBox="0 0 232.08098 232.74786"
   version="1.1"
   id="svg8"
   inkscape:version="1.0.1 (3bc2e813f5, 2020-09-07)"
   sodipodi:docname="compass_icon.svg">
  <defs
     id="defs2" />
  <sodipodi:namedview
     id="base"
     pagecolor="#ffffff"
     bordercolor="#666666"
     borderopacity="1.0"
     inkscape:pageopacity="0.0"
     inkscape:pageshadow="2"
     inkscape:zoom="0.35"
     inkscape:cx="-219.15848"
     inkscape:cy="468.44372"
     inkscape:document-units="mm"
     inkscape:current-layer="layer1"
     inkscape:document-rotation="0"
     showgrid="false"
     inkscape:window-width="2736"
     inkscape:window-height="1790"
     inkscape:window-x="-11"
     inkscape:window-y="-11"
     inkscape:window-maximized="1" />
  <metadata
     id="metadata5">
    <rdf:RDF>
      <cc:Work
         rdf:about="">
        <dc:format>image/svg+xml</dc:format>
        <dc:type
           rdf:resource="http://purl.org/dc/dcmitype/StillImage" />
        <dc:title></dc:title>
      </cc:Work>
    </rdf:RDF>
  </metadata>
  <g
     inkscape:label="Layer 1"
     inkscape:groupmode="layer"
     id="layer1"
     transform="translate(-342.85374,-24.224265)">
    <path
       style="fill:#fff;fill-opacity:1;stroke-width:0.352778"
       d="m 450.74921,256.78988 c -11.47688,-1.12485 -19.09884,-2.59612 -27.34028,-5.27749 -29.75934,-9.68229 -54.22125,-30.67071 -68.20216,-58.51775 -12.5771,-25.05094 -15.67983,-54.07161 -8.71264,-81.49167 8.12679,-31.983742 29.59647,-59.105982 58.74675,-74.213631 11.98761,-6.21279 23.59117,-9.969905 37.21805,-12.050815 7.11228,-1.08609 21.33229,-1.35509 28.39196,-0.537093 20.11382,2.330573 36.57508,8.290257 52.74693,19.096666 20.79557,13.896082 37.22599,35.3326 45.13902,58.892173 11.90382,35.44142 6.45179,74.61284 -14.55752,104.59187 -5.27234,7.52333 -13.83255,16.88188 -20.70372,22.63459 -21.18667,17.73801 -47.80127,27.3007 -75.28652,27.05062 -3.41283,-0.031 -6.76077,-0.11091 -7.43987,-0.17747 z m 13.85406,-4.36059 c 9.81047,-0.54399 17.89012,-1.90726 26.34884,-4.44579 11.56752,-3.4715 20.62869,-7.75944 30.9179,-14.631 11.20858,-7.48556 22.71051,-19.02897 30.37056,-30.48008 17.2973,-25.85796 23.06737,-57.36363 16.15242,-88.19519 C 560.45696,79.293024 535.08645,49.443173 501.23974,35.667592 467.19709,21.812265 427.91012,25.636793 397.39571,45.776647 c -16.79573,11.085368 -29.99514,25.911327 -38.91338,43.708638 -5.45576,10.887555 -8.82676,21.558135 -10.80066,34.188525 -0.70328,4.50007 -0.79955,6.43054 -0.80044,16.05139 -7e-4,8.58368 0.13361,11.88467 0.62482,15.34583 3.29535,23.2197 12.77193,43.5973 28.25259,60.75186 19.51623,21.62652 47.50273,35.01021 76.51176,36.58942 2.75286,0.14987 5.24332,0.29321 5.53437,0.31855 0.29104,0.0253 3.35037,-0.11036 6.7985,-0.30157 z m -7.08073,-20.17048 c -0.2942,-0.2942 -0.42333,-2.15587 -0.42333,-6.10306 0,-6.08711 0.11872,-6.52639 1.76389,-6.52639 1.64517,0 1.76389,0.43928 1.76389,6.52639 0,6.08712 -0.11872,6.52639 -1.76389,6.52639 -0.50447,0 -1.10772,-0.1905 -1.34056,-0.42333 z m -39.20719,-9.07998 c -0.39999,-0.39998 -0.72725,-0.90299 -0.72725,-1.11778 0,-0.2148 1.05855,-2.59972 2.35233,-5.29983 2.47425,-5.16372 3.05546,-5.77482 4.67037,-4.91055 1.20327,0.64397 0.89029,1.98769 -1.64748,7.07314 -2.56263,5.13527 -3.19177,5.71122 -4.64797,4.25502 z m 76.52268,-4.29684 c -1.35357,-2.73939 -2.46104,-5.25479 -2.46104,-5.58977 0,-0.99013 1.25475,-1.89248 2.27536,-1.63632 0.73342,0.18407 1.30238,1.08218 3.18921,5.03412 1.2631,2.64554 2.29654,5.07893 2.29654,5.40754 0,0.81019 -1.11698,1.76514 -2.06466,1.76514 -0.64454,0 -1.18699,-0.83507 -3.23541,-4.98071 z M 377.48269,206.57084 c -0.87565,-0.34908 -1.52237,-1.37671 -1.52237,-2.41905 0,-0.38901 0.59531,-1.40126 1.32292,-2.24945 0.7276,-0.84819 2.03729,-2.3924 2.91041,-3.43158 0.87313,-1.03918 3.94949,-4.6808 6.83636,-8.09249 2.88687,-3.41169 6.72273,-7.94932 8.52414,-10.08363 1.8014,-2.1343 12.53629,-14.84047 23.85531,-28.23592 11.31902,-13.39545 21.6119,-25.58525 22.87308,-27.08845 l 2.29306,-2.73309 18.16806,-9.38978 c 40.87388,-21.124812 68.13488,-35.222737 71.90766,-37.186777 4.23774,-2.206096 5.07792,-2.409434 6.33051,-1.53209 1.33253,0.933341 1.03964,2.494319 -0.89478,4.768857 -0.91991,1.081649 -9.29256,10.988316 -18.60589,22.01481 -20.2242,23.94439 -24.01992,28.4349 -30.86939,36.51994 -2.87658,3.39549 -7.64294,9.03111 -10.59191,12.52361 -2.94897,3.4925 -5.7146,6.75596 -6.14584,7.25214 -0.45572,0.52434 -10.6695,6.01346 -24.38986,13.10768 -12.98318,6.71305 -27.41578,14.17946 -32.07245,16.59202 -4.65667,2.41256 -11.95917,6.18494 -16.22778,8.38306 -4.26861,2.19812 -10.90855,5.62984 -14.75543,7.62604 -3.84687,1.99621 -7.26,3.70414 -7.58472,3.79542 -0.32472,0.0913 -0.93721,0.0277 -1.36109,-0.14127 z m 17.35124,-12.15845 c 4.46264,-2.28745 9.54264,-4.90982 11.28889,-5.82749 1.74625,-0.91767 5.79438,-3.02018 8.99584,-4.67223 6.25823,-3.22946 23.04037,-11.91015 30.51527,-15.78427 2.52236,-1.30729 7.76111,-4.00643 11.64167,-5.99807 6.07247,-3.11661 11.40883,-5.92568 11.73874,-6.17929 0.14144,-0.10873 -22.85722,-28.90721 -23.18047,-29.02615 -0.14993,-0.0552 -3.51063,3.74124 -7.46821,8.43645 -3.95759,4.69522 -8.30687,9.83165 -9.66506,11.41429 -1.3582,1.58264 -3.92755,4.61249 -5.70969,6.73299 -1.78213,2.12051 -11.25842,13.34133 -21.05842,24.93518 -9.8,11.59384 -17.91791,21.24109 -18.03981,21.43833 -0.1219,0.19723 0.46439,-0.017 1.30286,-0.47607 0.83848,-0.45907 5.17575,-2.70622 9.63839,-4.99367 z m 130.175,0.85971 c -4.22653,-3.42506 -4.94108,-4.45698 -3.89022,-5.61817 0.3565,-0.39393 0.94282,-0.71623 1.30293,-0.71623 0.87859,0 8.97236,6.47702 9.20488,7.36619 0.10098,0.38613 -0.046,1.02982 -0.32658,1.43043 -0.95344,1.36121 -2.15154,0.89229 -6.29101,-2.46222 z M 369.10635,161.57222 c -0.66791,-0.66792 -0.71126,-1.57203 -0.11339,-2.3654 0.53934,-0.7157 10.10718,-2.89854 11.34413,-2.58808 1.14575,0.28756 1.53666,1.87203 0.67141,2.72141 -0.38241,0.37541 -2.52319,1.05981 -5.33816,1.7066 -5.4109,1.24325 -5.81395,1.27551 -6.56399,0.52547 z m 176.86347,0.41268 c -0.0808,-0.0779 -2.052,-0.56769 -4.38033,-1.08836 -2.32833,-0.52066 -4.43177,-1.11134 -4.67431,-1.31262 -0.56106,-0.46561 -0.57198,-2.1241 -0.0176,-2.67845 0.23283,-0.23283 0.77144,-0.42333 1.1969,-0.42333 1.2726,0 10.09848,2.09422 10.608,2.51709 0.71959,0.5972 0.58707,2.33526 -0.2106,2.76217 -0.67339,0.36038 -2.23634,0.49889 -2.52203,0.2235 z M 374.64474,122.80132 c -2.74447,-0.61648 -5.23808,-1.32681 -5.54135,-1.5785 -0.76189,-0.63231 -0.6901,-1.90025 0.15066,-2.66113 0.67852,-0.61405 0.88116,-0.59517 6.04089,0.56268 4.42464,0.9929 5.43053,1.33644 5.87437,2.00625 0.64049,0.96659 0.18196,2.34268 -0.8725,2.61843 -0.36417,0.0952 -2.9076,-0.33125 -5.65207,-0.94773 z m 162.59988,0.66654 c -0.9553,-0.66912 -1.04869,-2.44658 -0.15305,-2.91284 0.59715,-0.31087 9.91255,-2.52566 10.62292,-2.52566 0.63121,0 1.45972,1.09106 1.45972,1.92228 0,1.42796 -0.32081,1.54752 -10.43029,3.88715 -0.40089,0.0928 -1.07558,-0.0741 -1.4993,-0.37093 z M 390.33602,87.84507 c -3.48738,-2.819213 -4.14514,-3.506008 -4.14514,-4.328054 0,-1.172764 0.57429,-1.823763 1.60888,-1.823763 0.43348,0 2.6092,1.471997 5.04472,3.413055 3.3935,2.704539 4.28251,3.593567 4.28251,4.282634 0,0.981428 -0.88628,1.806822 -1.94028,1.806977 -0.38806,6e-5 -2.57087,-1.507825 -4.85069,-3.350849 z m 29.65177,-24.315742 c -2.17606,-4.419317 -2.46508,-5.224452 -2.13529,-5.948263 0.48587,-1.066359 1.59239,-1.359878 2.56317,-0.679913 0.85969,0.602146 4.93354,8.967015 4.93354,10.130067 0,1.040564 -0.65225,1.609256 -1.84569,1.609256 -0.93508,0 -1.16013,-0.327173 -3.51573,-5.111147 z m 72.96272,4.575934 c -0.31544,-0.315433 -0.5734,-0.839989 -0.57326,-1.16568 3.6e-4,-1.111127 4.49742,-9.868624 5.2835,-10.289322 0.99955,-0.534941 2.48253,0.369165 2.46567,1.503208 -0.006,0.432089 -1.07799,2.928743 -2.38125,5.548118 -2.06419,4.148734 -2.48888,4.776336 -3.29536,4.869847 -0.51214,0.05938 -1.18204,-0.148904 -1.4993,-0.466171 z m -34.79626,-7.69021 c -0.87542,-0.43603 -0.87901,-0.458551 -0.97542,-6.126498 -0.10492,-6.167667 0.0701,-6.814746 1.84266,-6.814746 1.48972,0 1.6295,0.614264 1.52624,6.707145 -0.0897,5.290422 -0.15167,5.767543 -0.80598,6.201552 -0.57177,0.379246 -0.87879,0.38554 -1.5875,0.03256 z"
       id="path849" />
  </g>
</svg>
