<svg width="38" height="51" viewBox="0 0 38 51" fill="none" xmlns="http://www.w3.org/2000/svg">
<path fill-rule="evenodd" clip-rule="evenodd" d="M17.1772 40.0978L17.2897 46.4216L21.5056 46.3466L21.3931 40.0228L23.5011 39.9853C28.1578 39.9024 31.8658 36.0602 31.7829 31.4035C31.7001 26.7467 27.8579 23.0388 23.2011 23.1216L21.0932 23.1591L20.9432 14.7273L25.1591 14.6523L25.2341 18.8682L29.45 18.7932L29.3 10.3614L20.8682 10.5113L20.7557 4.18746L16.5398 4.26245L16.6523 10.5863L14.5443 10.6238C9.88754 10.7067 6.17963 14.5489 6.26246 19.2056C6.34529 23.8624 10.1875 27.5703 14.8443 27.4875L16.9522 27.45L17.1022 35.8818L12.8863 35.9568L12.8113 31.7409L8.59538 31.8159L8.74536 40.2477L17.1772 40.0978ZM21.3181 35.8069L23.4261 35.7694C25.7545 35.7279 27.6084 33.8068 27.567 31.4785C27.5256 29.1501 25.6045 27.2961 23.2761 27.3375L21.1682 27.375L21.3181 35.8069ZM16.8772 23.2341L16.7273 14.8022L14.6193 14.8397C12.2909 14.8812 10.437 16.8023 10.4784 19.1306C10.5198 21.459 12.4409 23.313 14.7693 23.2716L16.8772 23.2341Z" fill="white"/>
</svg>
