<svg width="24" height="24" viewBox="0 0 24 24" fill="none" xmlns="http://www.w3.org/2000/svg">
<path fill-rule="evenodd" clip-rule="evenodd" d="M18 22.8787C19.6569 22.8787 21 21.5355 21 19.8787V9.87866C21 9.84477 20.9983 9.81126 20.995 9.77823H21C21 9.20227 20.7712 8.64989 20.3639 8.24262L14.1213 2.00002C12.9498 0.828445 11.0503 0.828445 9.87868 2.00002L3.63606 8.24264C3.2288 8.6499 3 9.20227 3 9.77823H3.00498C3.00169 9.81126 3 9.84477 3 9.87866V19.8787C3 21.5355 4.34315 22.8787 6 22.8787H18ZM11.2929 3.41423L5 9.70713V19.8787C5 20.4309 5.44772 20.8787 6 20.8787H9V15.8787C9 14.2218 10.3431 12.8787 12 12.8787C13.6569 12.8787 15 14.2218 15 15.8787V20.8787H18C18.5523 20.8787 19 20.4309 19 19.8787V9.7072L12.7071 3.41423C12.3166 3.02371 11.6834 3.02371 11.2929 3.41423Z" fill="black"/>
</svg>
