<svg width="25" height="25" viewBox="0 0 25 25" fill="none" xmlns="http://www.w3.org/2000/svg">
<path fill-rule="evenodd" clip-rule="evenodd" d="M17.0455 9.09091C17.0455 11.6013 15.0104 13.6364 12.5 13.6364C9.98961 13.6364 7.95455 11.6013 7.95455 9.09091C7.95455 6.58052 9.98961 4.54545 12.5 4.54545C15.0104 4.54545 17.0455 6.58052 17.0455 9.09091ZM14.7727 9.09091C14.7727 10.3461 13.7552 11.3636 12.5 11.3636C11.2448 11.3636 10.2273 10.3461 10.2273 9.09091C10.2273 7.83572 11.2448 6.81818 12.5 6.81818C13.7552 6.81818 14.7727 7.83572 14.7727 9.09091Z" fill="white"/>
<path fill-rule="evenodd" clip-rule="evenodd" d="M12.5 0C5.59644 0 0 5.59644 0 12.5C0 19.4036 5.59644 25 12.5 25C19.4036 25 25 19.4036 25 12.5C25 5.59644 19.4036 0 12.5 0ZM2.27273 12.5C2.27273 14.8752 3.08244 17.0614 4.44089 18.7974C6.3096 16.351 9.25712 14.7727 12.5733 14.7727C15.8464 14.7727 18.7604 16.3103 20.6324 18.7026C21.9466 16.9821 22.7273 14.8322 22.7273 12.5C22.7273 6.85163 18.1484 2.27273 12.5 2.27273C6.85163 2.27273 2.27273 6.85163 2.27273 12.5ZM12.5 22.7273C10.0566 22.7273 7.81324 21.8704 6.05417 20.4407C7.49264 18.3877 9.8762 17.0455 12.5733 17.0455C15.2369 17.0455 17.5947 18.3546 19.0384 20.3646C17.2658 21.8399 14.9865 22.7273 12.5 22.7273Z" fill="white"/>
</svg>
