<svg width="24" height="24" viewBox="0 0 24 24" fill="none" xmlns="http://www.w3.org/2000/svg">
<path fill-rule="evenodd" clip-rule="evenodd" d="M5.68097 14.4326C3.23724 11.2941 3.45796 6.75345 6.34315 3.86827C9.46734 0.744075 14.5327 0.744075 17.6569 3.86827C20.781 6.99246 20.781 12.0578 17.6569 15.182C14.7717 18.0672 10.231 18.2879 7.09253 15.8442C7.07898 15.8595 7.06489 15.8744 7.05025 15.8891L2.80761 20.1317C2.41709 20.5222 1.78392 20.5222 1.3934 20.1317C1.00287 19.7412 1.00287 19.108 1.3934 18.7175L5.63604 14.4749C5.65068 14.4602 5.66567 14.4461 5.68097 14.4326ZM7.75736 5.28248C5.41421 7.62563 5.41421 11.4246 7.75736 13.7678C10.1005 16.1109 13.8995 16.1109 16.2426 13.7678C18.5858 11.4246 18.5858 7.62563 16.2426 5.28248C13.8995 2.93934 10.1005 2.93934 7.75736 5.28248Z" fill="black"/>
</svg>
