<svg width="24" height="24" viewBox="0 0 24 24" fill="none" xmlns="http://www.w3.org/2000/svg">
<path fill-rule="evenodd" clip-rule="evenodd" d="M18.2083 2H23V4H19.7816L17.0128 16.6776H17V17H4V16.7519L1.80678 7.09095L1.46924 6H17.3448L17.9151 3.38852L18.2083 2ZM4.01314 8H16.908L15.3792 15H5.60222L4.01314 8Z" fill="black"/>
<path d="M14 22C12.8954 22 12 21.1046 12 20C12 18.8954 12.8954 18 14 18C15.1046 18 16 18.8954 16 20C16 21.1046 15.1046 22 14 22Z" fill="black"/>
<path d="M5 20C5 21.1046 5.89543 22 7 22C8.10457 22 9 21.1046 9 20C9 18.8954 8.10457 18 7 18C5.89543 18 5 18.8954 5 20Z" fill="black"/>
</svg>
